<mxfile host="Electron" modified="2024-11-12T05:40:29.970Z" agent="Mozilla/5.0 (Windows NT 10.0; Win64; x64) AppleWebKit/537.36 (KHTML, like Gecko) draw.io/24.6.4 Chrome/124.0.6367.207 Electron/30.0.6 Safari/537.36" etag="Vrmh8uv8KQEMruIMa8wH" version="24.6.4" type="device">
  <diagram name="第 1 页" id="9w8WdnWBzL9rKV-Gwiog">
    <mxGraphModel dx="1434" dy="836" grid="1" gridSize="10" guides="1" tooltips="1" connect="1" arrows="1" fold="1" page="1" pageScale="1" pageWidth="827" pageHeight="1169" math="0" shadow="0">
      <root>
        <mxCell id="0" />
        <mxCell id="1" parent="0" />
        <mxCell id="gA-Up9dIO2c2TEV-Hul_-1" value="前端服务&lt;div&gt;localhost:5173&lt;/div&gt;" style="whiteSpace=wrap;html=1;aspect=fixed;" vertex="1" parent="1">
          <mxGeometry x="60" y="280" width="210" height="210" as="geometry" />
        </mxCell>
        <mxCell id="gA-Up9dIO2c2TEV-Hul_-2" value="后端服务&lt;div&gt;localhost:8080&lt;/div&gt;" style="whiteSpace=wrap;html=1;aspect=fixed;" vertex="1" parent="1">
          <mxGeometry x="600" y="280" width="210" height="210" as="geometry" />
        </mxCell>
        <mxCell id="gA-Up9dIO2c2TEV-Hul_-3" value="登录模块" style="rounded=1;whiteSpace=wrap;html=1;" vertex="1" parent="1">
          <mxGeometry x="60" y="300" width="100" height="40" as="geometry" />
        </mxCell>
        <mxCell id="gA-Up9dIO2c2TEV-Hul_-4" value="注册模块" style="rounded=1;whiteSpace=wrap;html=1;" vertex="1" parent="1">
          <mxGeometry x="170" y="300" width="100" height="40" as="geometry" />
        </mxCell>
        <mxCell id="gA-Up9dIO2c2TEV-Hul_-5" value="员工模块/&lt;div&gt;role:user&lt;/div&gt;" style="rounded=1;whiteSpace=wrap;html=1;" vertex="1" parent="1">
          <mxGeometry x="60" y="430" width="100" height="40" as="geometry" />
        </mxCell>
        <mxCell id="gA-Up9dIO2c2TEV-Hul_-6" value="管理模块/role:admin" style="rounded=1;whiteSpace=wrap;html=1;" vertex="1" parent="1">
          <mxGeometry x="170" y="430" width="100" height="40" as="geometry" />
        </mxCell>
        <mxCell id="gA-Up9dIO2c2TEV-Hul_-8" value="" style="shape=flexArrow;endArrow=classic;startArrow=classic;html=1;rounded=0;entryX=0;entryY=0.19;entryDx=0;entryDy=0;entryPerimeter=0;" edge="1" parent="1" target="gA-Up9dIO2c2TEV-Hul_-2">
          <mxGeometry width="100" height="100" relative="1" as="geometry">
            <mxPoint x="270" y="319.5" as="sourcePoint" />
            <mxPoint x="440" y="319.5" as="targetPoint" />
          </mxGeometry>
        </mxCell>
        <mxCell id="gA-Up9dIO2c2TEV-Hul_-9" value="" style="endArrow=classic;startArrow=classic;html=1;rounded=0;entryX=0;entryY=0.19;entryDx=0;entryDy=0;entryPerimeter=0;shape=flexArrow;" edge="1" parent="1">
          <mxGeometry width="100" height="100" relative="1" as="geometry">
            <mxPoint x="270" y="449.5" as="sourcePoint" />
            <mxPoint x="600" y="450" as="targetPoint" />
          </mxGeometry>
        </mxCell>
        <mxCell id="gA-Up9dIO2c2TEV-Hul_-10" value="&lt;font style=&quot;font-size: 18px;&quot;&gt;Vite配置proxy实现跨域：&lt;/font&gt;&lt;div style=&quot;font-size: 18px;&quot;&gt;&lt;font style=&quot;font-size: 18px;&quot;&gt;localhost:5173/Admin/employee/list&lt;/font&gt;&lt;/div&gt;&lt;div style=&quot;font-size: 18px;&quot;&gt;&lt;font style=&quot;font-size: 18px;&quot;&gt;转化为：&lt;/font&gt;&lt;/div&gt;&lt;div style=&quot;font-size: 18px;&quot;&gt;&lt;font style=&quot;font-size: 18px;&quot;&gt;localhost:8080/Admin/employee/list&lt;/font&gt;&lt;/div&gt;" style="text;html=1;align=center;verticalAlign=middle;resizable=0;points=[];autosize=1;strokeColor=#b85450;fillColor=#f8cecc;" vertex="1" parent="1">
          <mxGeometry x="280" y="330" width="310" height="100" as="geometry" />
        </mxCell>
        <mxCell id="gA-Up9dIO2c2TEV-Hul_-13" value="Axios发送请求包&lt;div&gt;前端接收后端返回的json&lt;/div&gt;" style="text;html=1;align=center;verticalAlign=middle;resizable=0;points=[];autosize=1;strokeColor=#6c8ebf;fillColor=#dae8fc;" vertex="1" parent="1">
          <mxGeometry x="350" y="455" width="150" height="40" as="geometry" />
        </mxCell>
        <mxCell id="gA-Up9dIO2c2TEV-Hul_-14" value="Axios发送请求包&lt;div&gt;前端接收后端返回的json&lt;/div&gt;" style="text;html=1;align=center;verticalAlign=middle;resizable=0;points=[];autosize=1;strokeColor=#6c8ebf;fillColor=#dae8fc;" vertex="1" parent="1">
          <mxGeometry x="360" y="270" width="150" height="40" as="geometry" />
        </mxCell>
        <mxCell id="gA-Up9dIO2c2TEV-Hul_-16" style="edgeStyle=orthogonalEdgeStyle;rounded=0;orthogonalLoop=1;jettySize=auto;html=1;" edge="1" parent="1" source="gA-Up9dIO2c2TEV-Hul_-15">
          <mxGeometry relative="1" as="geometry">
            <mxPoint x="320" y="645" as="targetPoint" />
          </mxGeometry>
        </mxCell>
        <mxCell id="gA-Up9dIO2c2TEV-Hul_-15" value="&lt;div&gt;{&lt;/div&gt;&lt;div&gt;&amp;nbsp; &quot;id&quot;: 1,&lt;/div&gt;&lt;div&gt;&amp;nbsp; &quot;name&quot;: &quot;张三&quot;,&lt;/div&gt;&lt;div&gt;&amp;nbsp; &quot;sex&quot;: &quot;M&quot;,&lt;/div&gt;&lt;div&gt;&amp;nbsp; &quot;passwd&quot;: &quot;encrypted_password&quot;,&lt;/div&gt;&lt;div&gt;&amp;nbsp; &quot;authority&quot;: &quot;admin&quot;,&lt;/div&gt;&lt;div&gt;&amp;nbsp; &quot;birthday&quot;: &quot;1990-05-15&quot;,&lt;/div&gt;&lt;div&gt;&amp;nbsp; &quot;department&quot;: &quot;技术部&quot;,&lt;/div&gt;&lt;div&gt;&amp;nbsp; &quot;job&quot;: &quot;软件工程师&quot;,&lt;/div&gt;&lt;div&gt;&amp;nbsp; &quot;eduLevel&quot;: &quot;本科&quot;,&lt;/div&gt;&lt;div&gt;&amp;nbsp; &quot;specialty&quot;: &quot;计算机科学&quot;,&lt;/div&gt;&lt;div&gt;&amp;nbsp; &quot;address&quot;: &quot;北京市朝阳区XXX街道&quot;,&lt;/div&gt;&lt;div&gt;&amp;nbsp; &quot;tel&quot;: &quot;13812345678&quot;,&lt;/div&gt;&lt;div&gt;&amp;nbsp; &quot;email&quot;: &quot;zhangsan@example.com&quot;,&lt;/div&gt;&lt;div&gt;&amp;nbsp; &quot;state&quot;: &quot;T&quot;,&lt;/div&gt;&lt;div&gt;&amp;nbsp; &quot;remark&quot;: &quot;暂无备注&quot;&lt;/div&gt;&lt;div&gt;}&lt;/div&gt;&lt;div&gt;&lt;br&gt;&lt;/div&gt;" style="text;html=1;align=center;verticalAlign=middle;resizable=0;points=[];autosize=1;strokeColor=#9673a6;fillColor=#e1d5e7;" vertex="1" parent="1">
          <mxGeometry x="30" y="510" width="220" height="270" as="geometry" />
        </mxCell>
        <mxCell id="gA-Up9dIO2c2TEV-Hul_-17" value="获取authority值来判定权限-通过vue-router实现前端权限的鉴定" style="text;html=1;align=center;verticalAlign=middle;resizable=0;points=[];autosize=1;strokeColor=#6c8ebf;fillColor=#dae8fc;" vertex="1" parent="1">
          <mxGeometry x="270" y="608" width="360" height="30" as="geometry" />
        </mxCell>
      </root>
    </mxGraphModel>
  </diagram>
</mxfile>
